<svg id="Capa_1" enable-background="new 0 0 510 510" height="512" viewBox="0 0 510 510" width="512" xmlns="http://www.w3.org/2000/svg"><g><path d="m255 379.403c-27.02 0-49 21.98-49 49v39h98v-39c0-27.02-21.98-49-49-49z"/><path d="m480 108.403v33h-42v-33h-30v33h-42v-33h-30v127h32v50h-66v-177.006l-47-65.8-47 65.8v177.007h-66v-50h32c0-20.995 0-94.844 0-127h-30v33h-42v-33h-30v33h-42v-33h-30v127h32v50h-32v182h176v-39c0-43.56 35.44-79 79-79s79 35.44 79 79v39h176v-182h-32v-50h32c0-39.562 0-124.85 0-127h-30zm-385 271h-32v-30h32zm64 0h-32v-30h32zm224 0h-32v-30h32zm64 0h-32v-30h32z"/></g></svg>